<mxfile host="app.diagrams.net" agent="Mozilla/5.0 (Windows NT 10.0; Win64; x64) AppleWebKit/537.36 (KHTML, like Gecko) Chrome/140.0.0.0 Safari/537.36 Edg/140.0.0.0" version="28.2.5">
  <diagram id="C5RBs43oDa-KdzZeNtuy" name="Page-1">
    <mxGraphModel dx="2081" dy="951" grid="1" gridSize="10" guides="1" tooltips="1" connect="1" arrows="1" fold="1" page="1" pageScale="1" pageWidth="827" pageHeight="1169" math="0" shadow="0">
      <root>
        <mxCell id="WIyWlLk6GJQsqaUBKTNV-0" />
        <mxCell id="WIyWlLk6GJQsqaUBKTNV-1" parent="WIyWlLk6GJQsqaUBKTNV-0" />
        <mxCell id="zMHx1gX578l4r98D342h-0" value="Admin" style="swimlane;whiteSpace=wrap;html=1;" parent="WIyWlLk6GJQsqaUBKTNV-1" vertex="1">
          <mxGeometry x="40" y="40" width="450" height="840" as="geometry">
            <mxRectangle x="430" y="510" width="140" height="30" as="alternateBounds" />
          </mxGeometry>
        </mxCell>
        <mxCell id="zMHx1gX578l4r98D342h-14" value="" style="edgeStyle=orthogonalEdgeStyle;rounded=0;orthogonalLoop=1;jettySize=auto;html=1;" parent="zMHx1gX578l4r98D342h-0" source="WIyWlLk6GJQsqaUBKTNV-6" target="zMHx1gX578l4r98D342h-13" edge="1">
          <mxGeometry relative="1" as="geometry" />
        </mxCell>
        <mxCell id="zMHx1gX578l4r98D342h-18" value="Yes" style="edgeLabel;html=1;align=center;verticalAlign=middle;resizable=0;points=[];" parent="zMHx1gX578l4r98D342h-14" vertex="1" connectable="0">
          <mxGeometry x="-0.4" y="-1" relative="1" as="geometry">
            <mxPoint as="offset" />
          </mxGeometry>
        </mxCell>
        <mxCell id="zMHx1gX578l4r98D342h-19" style="edgeStyle=orthogonalEdgeStyle;rounded=0;orthogonalLoop=1;jettySize=auto;html=1;entryX=1;entryY=0.5;entryDx=0;entryDy=0;" parent="zMHx1gX578l4r98D342h-0" source="WIyWlLk6GJQsqaUBKTNV-6" target="zMHx1gX578l4r98D342h-15" edge="1">
          <mxGeometry relative="1" as="geometry">
            <Array as="points">
              <mxPoint x="215" y="190" />
              <mxPoint x="215" y="70" />
            </Array>
          </mxGeometry>
        </mxCell>
        <mxCell id="zMHx1gX578l4r98D342h-20" value="No" style="edgeLabel;html=1;align=center;verticalAlign=middle;resizable=0;points=[];" parent="zMHx1gX578l4r98D342h-19" vertex="1" connectable="0">
          <mxGeometry x="-0.0323" y="-2" relative="1" as="geometry">
            <mxPoint as="offset" />
          </mxGeometry>
        </mxCell>
        <mxCell id="WIyWlLk6GJQsqaUBKTNV-6" value="Login ?" style="rhombus;whiteSpace=wrap;html=1;shadow=0;fontFamily=Helvetica;fontSize=12;align=center;strokeWidth=1;spacing=6;spacingTop=-4;" parent="zMHx1gX578l4r98D342h-0" vertex="1">
          <mxGeometry x="100" y="150" width="100" height="80" as="geometry" />
        </mxCell>
        <mxCell id="X_uzLd1JDPzAY57dWKAX-1" value="" style="edgeStyle=orthogonalEdgeStyle;rounded=0;orthogonalLoop=1;jettySize=auto;html=1;" parent="zMHx1gX578l4r98D342h-0" source="zMHx1gX578l4r98D342h-13" target="X_uzLd1JDPzAY57dWKAX-0" edge="1">
          <mxGeometry relative="1" as="geometry" />
        </mxCell>
        <mxCell id="zMHx1gX578l4r98D342h-13" value="Home -&amp;gt; Article Menu" style="whiteSpace=wrap;html=1;shadow=0;strokeWidth=1;spacing=6;spacingTop=-4;" parent="zMHx1gX578l4r98D342h-0" vertex="1">
          <mxGeometry x="90" y="280" width="120" height="60" as="geometry" />
        </mxCell>
        <mxCell id="zMHx1gX578l4r98D342h-16" value="" style="edgeStyle=orthogonalEdgeStyle;rounded=0;orthogonalLoop=1;jettySize=auto;html=1;" parent="zMHx1gX578l4r98D342h-0" source="zMHx1gX578l4r98D342h-15" target="WIyWlLk6GJQsqaUBKTNV-6" edge="1">
          <mxGeometry relative="1" as="geometry" />
        </mxCell>
        <mxCell id="zMHx1gX578l4r98D342h-15" value="Start" style="ellipse;whiteSpace=wrap;html=1;" parent="zMHx1gX578l4r98D342h-0" vertex="1">
          <mxGeometry x="105" y="40" width="90" height="60" as="geometry" />
        </mxCell>
        <mxCell id="X_uzLd1JDPzAY57dWKAX-3" style="edgeStyle=orthogonalEdgeStyle;rounded=0;orthogonalLoop=1;jettySize=auto;html=1;entryX=0.5;entryY=0;entryDx=0;entryDy=0;" parent="zMHx1gX578l4r98D342h-0" source="X_uzLd1JDPzAY57dWKAX-0" target="X_uzLd1JDPzAY57dWKAX-2" edge="1">
          <mxGeometry relative="1" as="geometry" />
        </mxCell>
        <mxCell id="X_uzLd1JDPzAY57dWKAX-0" value="Actions ?" style="rhombus;whiteSpace=wrap;html=1;shadow=0;strokeWidth=1;spacing=6;spacingTop=-4;" parent="zMHx1gX578l4r98D342h-0" vertex="1">
          <mxGeometry x="110" y="400" width="80" height="80" as="geometry" />
        </mxCell>
        <mxCell id="X_uzLd1JDPzAY57dWKAX-2" value="Start" style="ellipse;whiteSpace=wrap;html=1;" parent="zMHx1gX578l4r98D342h-0" vertex="1">
          <mxGeometry x="105" y="760" width="90" height="60" as="geometry" />
        </mxCell>
        <mxCell id="X_uzLd1JDPzAY57dWKAX-13" value="Add New Article -&amp;gt; Save" style="whiteSpace=wrap;html=1;shadow=0;strokeWidth=1;spacing=6;spacingTop=-4;" parent="zMHx1gX578l4r98D342h-0" vertex="1">
          <mxGeometry x="250" y="480" width="180" height="40" as="geometry" />
        </mxCell>
        <mxCell id="X_uzLd1JDPzAY57dWKAX-30" value="Edit Article -&amp;gt; Save" style="whiteSpace=wrap;html=1;shadow=0;strokeWidth=1;spacing=6;spacingTop=-4;" parent="zMHx1gX578l4r98D342h-0" vertex="1">
          <mxGeometry x="250" y="535" width="180" height="40" as="geometry" />
        </mxCell>
        <mxCell id="X_uzLd1JDPzAY57dWKAX-31" value="" style="endArrow=none;dashed=1;html=1;rounded=0;" parent="zMHx1gX578l4r98D342h-0" edge="1">
          <mxGeometry width="50" height="50" relative="1" as="geometry">
            <mxPoint x="150" y="554.5" as="sourcePoint" />
            <mxPoint x="250" y="554.5" as="targetPoint" />
          </mxGeometry>
        </mxCell>
        <mxCell id="X_uzLd1JDPzAY57dWKAX-32" value="Text" style="edgeLabel;html=1;align=center;verticalAlign=middle;resizable=0;points=[];" parent="X_uzLd1JDPzAY57dWKAX-31" vertex="1" connectable="0">
          <mxGeometry x="0.02" y="-2" relative="1" as="geometry">
            <mxPoint as="offset" />
          </mxGeometry>
        </mxCell>
        <mxCell id="X_uzLd1JDPzAY57dWKAX-33" value="Edit" style="edgeLabel;html=1;align=center;verticalAlign=middle;resizable=0;points=[];" parent="X_uzLd1JDPzAY57dWKAX-31" vertex="1" connectable="0">
          <mxGeometry x="0.04" y="-3" relative="1" as="geometry">
            <mxPoint as="offset" />
          </mxGeometry>
        </mxCell>
        <mxCell id="X_uzLd1JDPzAY57dWKAX-36" value="Delete Article&amp;nbsp;&lt;span style=&quot;background-color: transparent; color: light-dark(rgb(0, 0, 0), rgb(255, 255, 255));&quot;&gt;-&amp;gt; Confirm&lt;/span&gt;" style="whiteSpace=wrap;html=1;shadow=0;strokeWidth=1;spacing=6;spacingTop=-4;" parent="zMHx1gX578l4r98D342h-0" vertex="1">
          <mxGeometry x="250" y="587" width="180" height="40" as="geometry" />
        </mxCell>
        <mxCell id="X_uzLd1JDPzAY57dWKAX-37" value="" style="endArrow=none;dashed=1;html=1;rounded=0;" parent="zMHx1gX578l4r98D342h-0" edge="1">
          <mxGeometry width="50" height="50" relative="1" as="geometry">
            <mxPoint x="150" y="606.5" as="sourcePoint" />
            <mxPoint x="250" y="606.5" as="targetPoint" />
          </mxGeometry>
        </mxCell>
        <mxCell id="X_uzLd1JDPzAY57dWKAX-38" value="Text" style="edgeLabel;html=1;align=center;verticalAlign=middle;resizable=0;points=[];" parent="X_uzLd1JDPzAY57dWKAX-37" vertex="1" connectable="0">
          <mxGeometry x="0.02" y="-2" relative="1" as="geometry">
            <mxPoint as="offset" />
          </mxGeometry>
        </mxCell>
        <mxCell id="X_uzLd1JDPzAY57dWKAX-39" value="Delete" style="edgeLabel;html=1;align=center;verticalAlign=middle;resizable=0;points=[];" parent="X_uzLd1JDPzAY57dWKAX-37" vertex="1" connectable="0">
          <mxGeometry x="0.04" y="-3" relative="1" as="geometry">
            <mxPoint as="offset" />
          </mxGeometry>
        </mxCell>
        <mxCell id="X_uzLd1JDPzAY57dWKAX-9" value="" style="endArrow=none;dashed=1;html=1;rounded=0;" parent="zMHx1gX578l4r98D342h-0" edge="1">
          <mxGeometry width="50" height="50" relative="1" as="geometry">
            <mxPoint x="150" y="499.5" as="sourcePoint" />
            <mxPoint x="250" y="499.5" as="targetPoint" />
          </mxGeometry>
        </mxCell>
        <mxCell id="X_uzLd1JDPzAY57dWKAX-10" value="Text" style="edgeLabel;html=1;align=center;verticalAlign=middle;resizable=0;points=[];" parent="X_uzLd1JDPzAY57dWKAX-9" vertex="1" connectable="0">
          <mxGeometry x="0.02" y="-2" relative="1" as="geometry">
            <mxPoint as="offset" />
          </mxGeometry>
        </mxCell>
        <mxCell id="X_uzLd1JDPzAY57dWKAX-12" value="Add" style="edgeLabel;html=1;align=center;verticalAlign=middle;resizable=0;points=[];" parent="X_uzLd1JDPzAY57dWKAX-9" vertex="1" connectable="0">
          <mxGeometry x="0.04" y="-3" relative="1" as="geometry">
            <mxPoint as="offset" />
          </mxGeometry>
        </mxCell>
        <mxCell id="fEFpx00hatzRK4GJu2hC-3" value="Search Article&lt;span style=&quot;background-color: transparent; color: light-dark(rgb(0, 0, 0), rgb(255, 255, 255));&quot;&gt;&amp;nbsp;-&amp;gt; Result List&lt;/span&gt;" style="whiteSpace=wrap;html=1;shadow=0;strokeWidth=1;spacing=6;spacingTop=-4;" parent="zMHx1gX578l4r98D342h-0" vertex="1">
          <mxGeometry x="250" y="640" width="180" height="40" as="geometry" />
        </mxCell>
        <mxCell id="fEFpx00hatzRK4GJu2hC-4" value="" style="endArrow=none;dashed=1;html=1;rounded=0;" parent="zMHx1gX578l4r98D342h-0" edge="1">
          <mxGeometry width="50" height="50" relative="1" as="geometry">
            <mxPoint x="150" y="659.5" as="sourcePoint" />
            <mxPoint x="250" y="659.5" as="targetPoint" />
          </mxGeometry>
        </mxCell>
        <mxCell id="fEFpx00hatzRK4GJu2hC-5" value="Text" style="edgeLabel;html=1;align=center;verticalAlign=middle;resizable=0;points=[];" parent="fEFpx00hatzRK4GJu2hC-4" vertex="1" connectable="0">
          <mxGeometry x="0.02" y="-2" relative="1" as="geometry">
            <mxPoint as="offset" />
          </mxGeometry>
        </mxCell>
        <mxCell id="fEFpx00hatzRK4GJu2hC-6" value="Search" style="edgeLabel;html=1;align=center;verticalAlign=middle;resizable=0;points=[];" parent="fEFpx00hatzRK4GJu2hC-4" vertex="1" connectable="0">
          <mxGeometry x="0.04" y="-3" relative="1" as="geometry">
            <mxPoint as="offset" />
          </mxGeometry>
        </mxCell>
        <mxCell id="fEFpx00hatzRK4GJu2hC-13" value="Filter by Category&lt;span style=&quot;background-color: transparent; color: light-dark(rgb(0, 0, 0), rgb(255, 255, 255));&quot;&gt;&amp;nbsp;-&amp;gt; Result List&lt;/span&gt;" style="whiteSpace=wrap;html=1;shadow=0;strokeWidth=1;spacing=6;spacingTop=-4;" parent="zMHx1gX578l4r98D342h-0" vertex="1">
          <mxGeometry x="250" y="691" width="180" height="40" as="geometry" />
        </mxCell>
        <mxCell id="fEFpx00hatzRK4GJu2hC-14" value="" style="endArrow=none;dashed=1;html=1;rounded=0;" parent="zMHx1gX578l4r98D342h-0" edge="1">
          <mxGeometry width="50" height="50" relative="1" as="geometry">
            <mxPoint x="150" y="710.5" as="sourcePoint" />
            <mxPoint x="250" y="710.5" as="targetPoint" />
          </mxGeometry>
        </mxCell>
        <mxCell id="fEFpx00hatzRK4GJu2hC-15" value="Text" style="edgeLabel;html=1;align=center;verticalAlign=middle;resizable=0;points=[];" parent="fEFpx00hatzRK4GJu2hC-14" vertex="1" connectable="0">
          <mxGeometry x="0.02" y="-2" relative="1" as="geometry">
            <mxPoint as="offset" />
          </mxGeometry>
        </mxCell>
        <mxCell id="fEFpx00hatzRK4GJu2hC-16" value="Filter" style="edgeLabel;html=1;align=center;verticalAlign=middle;resizable=0;points=[];" parent="fEFpx00hatzRK4GJu2hC-14" vertex="1" connectable="0">
          <mxGeometry x="0.04" y="-3" relative="1" as="geometry">
            <mxPoint as="offset" />
          </mxGeometry>
        </mxCell>
        <mxCell id="fEFpx00hatzRK4GJu2hC-17" value="Viewer" style="swimlane;whiteSpace=wrap;html=1;" parent="WIyWlLk6GJQsqaUBKTNV-1" vertex="1">
          <mxGeometry x="560" y="40" width="450" height="840" as="geometry">
            <mxRectangle x="430" y="510" width="140" height="30" as="alternateBounds" />
          </mxGeometry>
        </mxCell>
        <mxCell id="fEFpx00hatzRK4GJu2hC-18" value="" style="edgeStyle=orthogonalEdgeStyle;rounded=0;orthogonalLoop=1;jettySize=auto;html=1;" parent="fEFpx00hatzRK4GJu2hC-17" source="fEFpx00hatzRK4GJu2hC-22" target="fEFpx00hatzRK4GJu2hC-24" edge="1">
          <mxGeometry relative="1" as="geometry" />
        </mxCell>
        <mxCell id="fEFpx00hatzRK4GJu2hC-19" value="Yes" style="edgeLabel;html=1;align=center;verticalAlign=middle;resizable=0;points=[];" parent="fEFpx00hatzRK4GJu2hC-18" vertex="1" connectable="0">
          <mxGeometry x="-0.4" y="-1" relative="1" as="geometry">
            <mxPoint as="offset" />
          </mxGeometry>
        </mxCell>
        <mxCell id="fEFpx00hatzRK4GJu2hC-20" style="edgeStyle=orthogonalEdgeStyle;rounded=0;orthogonalLoop=1;jettySize=auto;html=1;entryX=1;entryY=0.5;entryDx=0;entryDy=0;" parent="fEFpx00hatzRK4GJu2hC-17" source="fEFpx00hatzRK4GJu2hC-22" target="fEFpx00hatzRK4GJu2hC-26" edge="1">
          <mxGeometry relative="1" as="geometry">
            <Array as="points">
              <mxPoint x="215" y="190" />
              <mxPoint x="215" y="70" />
            </Array>
          </mxGeometry>
        </mxCell>
        <mxCell id="fEFpx00hatzRK4GJu2hC-21" value="No" style="edgeLabel;html=1;align=center;verticalAlign=middle;resizable=0;points=[];" parent="fEFpx00hatzRK4GJu2hC-20" vertex="1" connectable="0">
          <mxGeometry x="-0.0323" y="-2" relative="1" as="geometry">
            <mxPoint as="offset" />
          </mxGeometry>
        </mxCell>
        <mxCell id="fEFpx00hatzRK4GJu2hC-22" value="Login ?" style="rhombus;whiteSpace=wrap;html=1;shadow=0;fontFamily=Helvetica;fontSize=12;align=center;strokeWidth=1;spacing=6;spacingTop=-4;" parent="fEFpx00hatzRK4GJu2hC-17" vertex="1">
          <mxGeometry x="100" y="150" width="100" height="80" as="geometry" />
        </mxCell>
        <mxCell id="fEFpx00hatzRK4GJu2hC-23" value="" style="edgeStyle=orthogonalEdgeStyle;rounded=0;orthogonalLoop=1;jettySize=auto;html=1;" parent="fEFpx00hatzRK4GJu2hC-17" source="fEFpx00hatzRK4GJu2hC-24" target="fEFpx00hatzRK4GJu2hC-28" edge="1">
          <mxGeometry relative="1" as="geometry" />
        </mxCell>
        <mxCell id="fEFpx00hatzRK4GJu2hC-24" value="Home -&amp;gt; Article Menu" style="whiteSpace=wrap;html=1;shadow=0;strokeWidth=1;spacing=6;spacingTop=-4;" parent="fEFpx00hatzRK4GJu2hC-17" vertex="1">
          <mxGeometry x="90" y="280" width="120" height="60" as="geometry" />
        </mxCell>
        <mxCell id="fEFpx00hatzRK4GJu2hC-25" value="" style="edgeStyle=orthogonalEdgeStyle;rounded=0;orthogonalLoop=1;jettySize=auto;html=1;" parent="fEFpx00hatzRK4GJu2hC-17" source="fEFpx00hatzRK4GJu2hC-26" target="fEFpx00hatzRK4GJu2hC-22" edge="1">
          <mxGeometry relative="1" as="geometry" />
        </mxCell>
        <mxCell id="fEFpx00hatzRK4GJu2hC-26" value="Start" style="ellipse;whiteSpace=wrap;html=1;" parent="fEFpx00hatzRK4GJu2hC-17" vertex="1">
          <mxGeometry x="105" y="40" width="90" height="60" as="geometry" />
        </mxCell>
        <mxCell id="fEFpx00hatzRK4GJu2hC-27" style="edgeStyle=orthogonalEdgeStyle;rounded=0;orthogonalLoop=1;jettySize=auto;html=1;entryX=0.5;entryY=0;entryDx=0;entryDy=0;" parent="fEFpx00hatzRK4GJu2hC-17" source="fEFpx00hatzRK4GJu2hC-28" target="fEFpx00hatzRK4GJu2hC-29" edge="1">
          <mxGeometry relative="1" as="geometry" />
        </mxCell>
        <mxCell id="fEFpx00hatzRK4GJu2hC-28" value="Actions ?" style="rhombus;whiteSpace=wrap;html=1;shadow=0;strokeWidth=1;spacing=6;spacingTop=-4;" parent="fEFpx00hatzRK4GJu2hC-17" vertex="1">
          <mxGeometry x="110" y="400" width="80" height="80" as="geometry" />
        </mxCell>
        <mxCell id="fEFpx00hatzRK4GJu2hC-29" value="Start" style="ellipse;whiteSpace=wrap;html=1;" parent="fEFpx00hatzRK4GJu2hC-17" vertex="1">
          <mxGeometry x="105" y="650" width="90" height="60" as="geometry" />
        </mxCell>
        <mxCell id="fEFpx00hatzRK4GJu2hC-30" value="Open Article" style="whiteSpace=wrap;html=1;shadow=0;strokeWidth=1;spacing=6;spacingTop=-4;" parent="fEFpx00hatzRK4GJu2hC-17" vertex="1">
          <mxGeometry x="250" y="480" width="180" height="40" as="geometry" />
        </mxCell>
        <mxCell id="fEFpx00hatzRK4GJu2hC-39" value="" style="endArrow=none;dashed=1;html=1;rounded=0;" parent="fEFpx00hatzRK4GJu2hC-17" edge="1">
          <mxGeometry width="50" height="50" relative="1" as="geometry">
            <mxPoint x="150" y="499.5" as="sourcePoint" />
            <mxPoint x="250" y="499.5" as="targetPoint" />
          </mxGeometry>
        </mxCell>
        <mxCell id="fEFpx00hatzRK4GJu2hC-40" value="Text" style="edgeLabel;html=1;align=center;verticalAlign=middle;resizable=0;points=[];" parent="fEFpx00hatzRK4GJu2hC-39" vertex="1" connectable="0">
          <mxGeometry x="0.02" y="-2" relative="1" as="geometry">
            <mxPoint as="offset" />
          </mxGeometry>
        </mxCell>
        <mxCell id="fEFpx00hatzRK4GJu2hC-41" value="Read" style="edgeLabel;html=1;align=center;verticalAlign=middle;resizable=0;points=[];" parent="fEFpx00hatzRK4GJu2hC-39" vertex="1" connectable="0">
          <mxGeometry x="0.04" y="-3" relative="1" as="geometry">
            <mxPoint as="offset" />
          </mxGeometry>
        </mxCell>
        <mxCell id="fEFpx00hatzRK4GJu2hC-42" value="Search Article&lt;span style=&quot;background-color: transparent; color: light-dark(rgb(0, 0, 0), rgb(255, 255, 255));&quot;&gt;&amp;nbsp;-&amp;gt; Result List&lt;/span&gt;" style="whiteSpace=wrap;html=1;shadow=0;strokeWidth=1;spacing=6;spacingTop=-4;" parent="fEFpx00hatzRK4GJu2hC-17" vertex="1">
          <mxGeometry x="250" y="530" width="180" height="40" as="geometry" />
        </mxCell>
        <mxCell id="fEFpx00hatzRK4GJu2hC-43" value="" style="endArrow=none;dashed=1;html=1;rounded=0;" parent="fEFpx00hatzRK4GJu2hC-17" edge="1">
          <mxGeometry width="50" height="50" relative="1" as="geometry">
            <mxPoint x="150" y="549.5" as="sourcePoint" />
            <mxPoint x="250" y="549.5" as="targetPoint" />
          </mxGeometry>
        </mxCell>
        <mxCell id="fEFpx00hatzRK4GJu2hC-44" value="Text" style="edgeLabel;html=1;align=center;verticalAlign=middle;resizable=0;points=[];" parent="fEFpx00hatzRK4GJu2hC-43" vertex="1" connectable="0">
          <mxGeometry x="0.02" y="-2" relative="1" as="geometry">
            <mxPoint as="offset" />
          </mxGeometry>
        </mxCell>
        <mxCell id="fEFpx00hatzRK4GJu2hC-45" value="Search" style="edgeLabel;html=1;align=center;verticalAlign=middle;resizable=0;points=[];" parent="fEFpx00hatzRK4GJu2hC-43" vertex="1" connectable="0">
          <mxGeometry x="0.04" y="-3" relative="1" as="geometry">
            <mxPoint as="offset" />
          </mxGeometry>
        </mxCell>
        <mxCell id="fEFpx00hatzRK4GJu2hC-46" value="Filter by Category&lt;span style=&quot;background-color: transparent; color: light-dark(rgb(0, 0, 0), rgb(255, 255, 255));&quot;&gt;&amp;nbsp;-&amp;gt; Result List&lt;/span&gt;" style="whiteSpace=wrap;html=1;shadow=0;strokeWidth=1;spacing=6;spacingTop=-4;" parent="fEFpx00hatzRK4GJu2hC-17" vertex="1">
          <mxGeometry x="250" y="581" width="180" height="40" as="geometry" />
        </mxCell>
        <mxCell id="fEFpx00hatzRK4GJu2hC-47" value="" style="endArrow=none;dashed=1;html=1;rounded=0;" parent="fEFpx00hatzRK4GJu2hC-17" edge="1">
          <mxGeometry width="50" height="50" relative="1" as="geometry">
            <mxPoint x="150" y="600.5" as="sourcePoint" />
            <mxPoint x="250" y="600.5" as="targetPoint" />
          </mxGeometry>
        </mxCell>
        <mxCell id="fEFpx00hatzRK4GJu2hC-48" value="Text" style="edgeLabel;html=1;align=center;verticalAlign=middle;resizable=0;points=[];" parent="fEFpx00hatzRK4GJu2hC-47" vertex="1" connectable="0">
          <mxGeometry x="0.02" y="-2" relative="1" as="geometry">
            <mxPoint as="offset" />
          </mxGeometry>
        </mxCell>
        <mxCell id="fEFpx00hatzRK4GJu2hC-49" value="Filter" style="edgeLabel;html=1;align=center;verticalAlign=middle;resizable=0;points=[];" parent="fEFpx00hatzRK4GJu2hC-47" vertex="1" connectable="0">
          <mxGeometry x="0.04" y="-3" relative="1" as="geometry">
            <mxPoint as="offset" />
          </mxGeometry>
        </mxCell>
      </root>
    </mxGraphModel>
  </diagram>
</mxfile>
